<svg width="2493" height="629" viewBox="0 0 2493 629" fill="none" xmlns="http://www.w3.org/2000/svg">
<path d="M725.421 513L646.342 399.635C643.024 400.004 638.047 400.188 631.411 400.188H544.037V513H472.147V125.9H631.411C664.96 125.9 694.084 131.43 718.785 142.49C743.854 153.55 763.025 169.403 776.297 190.048C789.569 210.693 796.205 235.21 796.205 263.597C796.205 292.722 789.016 317.791 774.638 338.805C760.629 359.819 740.352 375.487 713.808 385.81L802.841 513H725.421ZM723.762 263.597C723.762 238.896 715.651 219.91 699.43 206.638C683.209 193.366 659.43 186.73 628.093 186.73H544.037V341.017H628.093C659.43 341.017 683.209 334.381 699.43 321.109C715.651 307.468 723.762 288.298 723.762 263.597ZM1147.61 367.008C1147.61 371.801 1147.24 378.621 1146.5 387.469H914.793C918.849 409.22 929.356 426.548 946.314 439.451C963.642 451.986 985.024 458.253 1010.46 458.253C1042.9 458.253 1069.63 447.562 1090.65 426.179L1127.7 468.76C1114.43 484.613 1097.65 496.594 1077.38 504.705C1057.1 512.816 1034.24 516.871 1008.8 516.871C976.361 516.871 947.789 510.419 923.088 497.516C898.388 484.613 879.217 466.732 865.576 443.875C852.304 420.649 845.668 394.474 845.668 365.349C845.668 336.593 852.12 310.786 865.023 287.929C878.295 264.703 896.544 246.638 919.77 233.735C942.996 220.832 969.172 214.38 998.296 214.38C1027.05 214.38 1052.67 220.832 1075.16 233.735C1098.02 246.27 1115.72 264.15 1128.25 287.376C1141.15 310.233 1147.61 336.777 1147.61 367.008ZM998.296 269.68C976.176 269.68 957.374 276.316 941.89 289.588C926.775 302.491 917.558 319.819 914.24 341.57H1081.8C1078.85 320.187 1069.82 302.86 1054.7 289.588C1039.59 276.316 1020.78 269.68 998.296 269.68ZM1349.49 516.871C1318.89 516.871 1291.43 510.419 1267.09 497.516C1242.76 484.613 1223.77 466.732 1210.13 443.875C1196.49 420.649 1189.67 394.474 1189.67 365.349C1189.67 336.224 1196.49 310.233 1210.13 287.376C1223.77 264.519 1242.58 246.638 1266.54 233.735C1290.87 220.832 1318.52 214.38 1349.49 214.38C1378.61 214.38 1404.05 220.279 1425.8 232.076C1447.92 243.873 1464.51 260.832 1475.57 282.952L1422.49 313.92C1414.01 300.279 1403.32 290.141 1390.41 283.505C1377.88 276.5 1364.05 272.998 1348.94 272.998C1323.13 272.998 1301.75 281.477 1284.79 298.436C1267.83 315.026 1259.35 337.33 1259.35 365.349C1259.35 393.368 1267.65 415.856 1284.24 432.815C1301.19 449.405 1322.76 457.7 1348.94 457.7C1364.05 457.7 1377.88 454.382 1390.41 447.746C1403.32 440.741 1414.01 430.419 1422.49 416.778L1475.57 447.746C1464.15 469.866 1447.37 487.009 1425.25 499.175C1403.5 510.972 1378.25 516.871 1349.49 516.871ZM1601.14 260.832C1621.04 229.864 1656.07 214.38 1706.21 214.38V280.187C1700.31 279.081 1694.96 278.528 1690.17 278.528C1663.26 278.528 1642.24 286.454 1627.13 302.307C1612.01 317.791 1604.45 340.28 1604.45 369.773V513H1535.33V217.698H1601.14V260.832ZM2053.45 217.698V513H1987.64V475.396C1976.58 488.668 1962.75 498.991 1946.16 506.364C1929.57 513.369 1911.69 516.871 1892.52 516.871C1853.08 516.871 1821.92 505.995 1799.07 484.244C1776.58 462.124 1765.33 429.497 1765.33 386.363V217.698H1834.46V376.962C1834.46 403.506 1840.36 423.414 1852.15 436.686C1864.32 449.589 1881.46 456.041 1903.58 456.041C1928.28 456.041 1947.82 448.483 1962.2 433.368C1976.95 417.884 1984.32 395.764 1984.32 367.008V217.698H2053.45ZM2143.95 217.698H2213.08V513H2143.95V217.698ZM2178.79 169.034C2166.26 169.034 2155.75 165.163 2147.27 157.421C2138.79 149.31 2134.55 139.356 2134.55 127.559C2134.55 115.762 2138.79 105.992 2147.27 98.25C2155.75 90.1393 2166.26 86.084 2178.79 86.084C2191.33 86.084 2201.83 89.955 2210.31 97.697C2218.79 105.07 2223.03 114.471 2223.03 125.9C2223.03 138.066 2218.79 148.389 2210.31 156.868C2202.2 164.979 2191.69 169.034 2178.79 169.034ZM2481.32 496.963C2473.21 503.599 2463.25 508.576 2451.46 511.894C2440.03 515.212 2427.86 516.871 2414.96 516.871C2382.51 516.871 2357.45 508.392 2339.75 491.433C2322.05 474.474 2313.21 449.774 2313.21 417.331V275.21H2264.54V219.91H2313.21V152.444H2382.33V219.91H2461.41V275.21H2382.33V415.672C2382.33 430.05 2385.83 441.11 2392.84 448.852C2399.84 456.225 2409.98 459.912 2423.25 459.912C2438.74 459.912 2451.64 455.857 2461.96 447.746L2481.32 496.963Z" fill="#212E7C"/>
<path d="M123.355 406H49.7711C48.5954 406 47.5281 406.687 47.0409 407.757L1.27326 508.257C0.368611 510.243 1.8207 512.5 4.00348 512.5H81.8343C83.0487 512.5 84.1433 511.768 84.607 510.646L126.128 410.146C126.944 408.171 125.492 406 123.355 406Z" fill="#212E7C"/>
<path d="M297.826 406H371.411C372.586 406 373.654 406.687 374.141 407.757L419.908 508.257C420.813 510.243 419.361 512.5 417.178 512.5H339.347C338.133 512.5 337.038 511.768 336.575 510.646L295.054 410.146C294.238 408.171 295.689 406 297.826 406Z" fill="#212E7C"/>
<path d="M123.355 406H49.7711C48.5954 406 47.5281 406.687 47.0409 407.757L1.27326 508.257C0.368611 510.243 1.8207 512.5 4.00348 512.5H81.8343C83.0487 512.5 84.1433 511.768 84.607 510.646L126.128 410.146C126.944 408.171 125.492 406 123.355 406Z" stroke="#212E7C"/>
<path d="M297.826 406H371.411C372.586 406 373.654 406.687 374.141 407.757L419.908 508.257C420.813 510.243 419.361 512.5 417.178 512.5H339.347C338.133 512.5 337.038 511.768 336.575 510.646L295.054 410.146C294.238 408.171 295.689 406 297.826 406Z" stroke="#212E7C"/>
<path d="M79.9593 343.5H152.336C153.55 343.5 154.644 342.769 155.108 341.648L207.069 216.192C208.092 213.723 211.59 213.723 212.613 216.192L264.574 341.648C265.038 342.769 266.132 343.5 267.345 343.5H341.212C343.387 343.5 344.839 341.26 343.951 339.275L251.135 131.775C250.652 130.695 249.579 130 248.396 130H172.29C171.104 130 170.03 130.698 169.549 131.78L77.2184 339.28C76.3356 341.264 77.7878 343.5 79.9593 343.5Z" fill="#00E0B5" stroke="#00E0B5"/>
</svg>
